{"accessors" : [{"bufferView" : 0, "byteOffset" : 0, "componentType" : 5123, "count" : 5424, "type" : "SCALAR", "max" : [1016], "min" : [0]}, {"bufferView" : 1, "byteOffset" : 0, "componentType" : 5126, "count" : 1017, "type" : "VEC3", "max" : [11, 5, 20], "min" : [-9, -15, 9.24908944666624E-16]}, {"bufferView" : 1, "byteOffset" : 12, "componentType" : 5126, "count" : 1017, "type" : "VEC4", "max" : [1, 0.980392158031464, 0.980392158031464, 1], "min" : [0.91372549533844, 0.113725490868092, 0.10196078568697, 1]}], "asset" : {"generator" : "Aspose.3D 20.1", "version" : "2.0"}, "buffers" : [{"uri" : "buffer.bin", "byteLength" : 39332}], "bufferViews" : [{"buffer" : 0, "byteOffset" : 0, "byteLength" : 10848, "target" : 34963}, {"buffer" : 0, "byteOffset" : 10852, "byteLength" : 28476, "byteStride" : 28, "target" : 34962}], "materials" : [{"pbrMetallicRoughness" : {"baseColorFactor" : [1, 1, 1, 1], "metallicFactor" : 0.5, "roughnessFactor" : 0.5}, "emissiveFactor" : [0, 0, 0], "alphaMode" : "OPAQUE", "doubleSided" : false}], "meshes" : [{"primitives" : [{"attributes" : {"POSITION" : 1, "COLOR" : 2}, "indices" : 0, "material" : 0, "mode" : 4}]}], "nodes" : [{"mesh" : 0, "name" : "Mesh_Mesh_head_geo.001_lambert2SG.001"}, {"children" : [0], "matrix" : [1, 0, 0, 0, 0, 2.22044604925031E-16, -1, 0, 0, 1, 2.22044604925031E-16, 0, 0, 0, 0, 1]}], "scene" : 0, "scenes" : [{"nodes" : [1]}]}