{"extensionsUsed" : ["KHR_materials_pbrSpecularGlossiness"], "accessors" : [{"bufferView" : 0, "byteOffset" : 0, "componentType" : 5123, "count" : 1716, "type" : "SCALAR", "max" : [387], "min" : [0]}, {"bufferView" : 1, "byteOffset" : 0, "componentType" : 5126, "count" : 388, "type" : "VEC3", "max" : [5.97830009460449, 9.89560031890869, 2.53150010108948], "min" : [-5.97830009460449, 0.0687000006437302, -1.29390001296997]}, {"bufferView" : 1, "byteOffset" : 12, "componentType" : 5126, "count" : 388, "type" : "VEC3", "max" : [0.999467194080353, 0.980551898479462, 0.999689221382141], "min" : [-0.999847769737244, -0.996936440467834, -0.999847114086151]}, {"bufferView" : 1, "byteOffset" : 24, "componentType" : 5126, "count" : 388, "type" : "VEC2", "max" : [0.444700002670288, 0.805000007152557], "min" : [0.0124000003561378, 0.0202000141143799]}, {"bufferView" : 0, "byteOffset" : 3432, "componentType" : 5123, "count" : 90, "type" : "SCALAR", "max" : [22], "min" : [0]}, {"bufferView" : 5, "byteOffset" : 0, "componentType" : 5126, "count" : 23, "type" : "VEC3", "max" : [1.76870000362396, 10.7246532440186, 1.97639095783234], "min" : [-1.76870000362396, 8.77355289459229, -0.375907987356186]}, {"bufferView" : 5, "byteOffset" : 12, "componentType" : 5126, "count" : 23, "type" : "VEC3", "max" : [0.80895984172821, 0.583272159099579, 0.999925971031189], "min" : [-0.822033047676086, -0.985499620437622, 0.16010969877243]}, {"bufferView" : 5, "byteOffset" : 24, "componentType" : 5126, "count" : 23, "type" : "VEC2", "max" : [0.487399995326996, 0.481299996376038], "min" : [0.480399996042252, 0.306999981403351]}, {"bufferView" : 0, "byteOffset" : 3612, "componentType" : 5123, "count" : 168, "type" : "SCALAR", "max" : [32], "min" : [0]}, {"bufferView" : 9, "byteOffset" : 0, "componentType" : 5126, "count" : 33, "type" : "VEC3", "max" : [1.10627901554108, 9.23782539367676, 2.07444405555725], "min" : [0.114280998706818, 8.24582576751709, 1.06854403018951]}, {"bufferView" : 9, "byteOffset" : 12, "componentType" : 5126, "count" : 33, "type" : "VEC3", "max" : [0.996711254119873, 0.994469821453094, 1.00000441074371], "min" : [-0.999932885169983, -0.999934017658234, -0.281568378210068]}, {"bufferView" : 9, "byteOffset" : 24, "componentType" : 5126, "count" : 33, "type" : "VEC2", "max" : [1, 1], "min" : [0, 0]}, {"bufferView" : 0, "byteOffset" : 3948, "componentType" : 5123, "count" : 168, "type" : "SCALAR", "max" : [32], "min" : [0]}, {"bufferView" : 13, "byteOffset" : 0, "componentType" : 5126, "count" : 33, "type" : "VEC3", "max" : [-0.114280998706818, 9.23782539367676, 2.07444405555725], "min" : [-1.10627901554108, 8.24582576751709, 1.06854403018951]}, {"bufferView" : 13, "byteOffset" : 12, "componentType" : 5126, "count" : 33, "type" : "VEC3", "max" : [0.999939858913422, 0.999939322471619, 1.00000441074371], "min" : [-0.999932885169983, -0.999934017658234, -0.27790430188179]}, {"bufferView" : 13, "byteOffset" : 24, "componentType" : 5126, "count" : 33, "type" : "VEC2", "max" : [1, 1], "min" : [0, 0]}, {"bufferView" : 0, "byteOffset" : 4284, "componentType" : 5123, "count" : 1098, "type" : "SCALAR", "max" : [306], "min" : [0]}, {"bufferView" : 17, "byteOffset" : 0, "componentType" : 5126, "count" : 307, "type" : "VEC3", "max" : [2.08109998703003, 6.84060001373291, 2.03160095214844], "min" : [-2.08109998703003, 2.30419993400574, -1.97220003604889]}, {"bufferView" : 17, "byteOffset" : 12, "componentType" : 5126, "count" : 307, "type" : "VEC3", "max" : [0.999966382980347, 0.991665184497833, 0.996227204799652], "min" : [-0.999943137168884, -0.999351322650909, -0.999095141887665]}, {"bufferView" : 17, "byteOffset" : 24, "componentType" : 5126, "count" : 307, "type" : "VEC2", "max" : [0.990599989891052, 0.975099980831146], "min" : [0.0103000001981854, 0.0199000239372253]}, {"bufferView" : 0, "byteOffset" : 6480, "componentType" : 5123, "count" : 654, "type" : "SCALAR", "max" : [156], "min" : [0]}, {"bufferView" : 21, "byteOffset" : 0, "componentType" : 5126, "count" : 157, "type" : "VEC3", "max" : [2.03169989585876, 0.964200019836426, 1.51370000839233], "min" : [-1.96399998664856, -2.9556999206543, -1.49240100383759]}, {"bufferView" : 21, "byteOffset" : 12, "componentType" : 5126, "count" : 157, "type" : "VEC3", "max" : [0.999926745891571, 0.999967515468597, 0.99286299943924], "min" : [-0.999952018260956, -0.9895259141922, -0.998563647270203]}, {"bufferView" : 21, "byteOffset" : 24, "componentType" : 5126, "count" : 157, "type" : "VEC2", "max" : [0.753600001335144, 0.977299988269806], "min" : [0.0220999997109175, 0.0184999704360962]}, {"bufferView" : 0, "byteOffset" : 7788, "componentType" : 5123, "count" : 237, "type" : "SCALAR", "max" : [45], "min" : [0]}, {"bufferView" : 25, "byteOffset" : 0, "componentType" : 5126, "count" : 46, "type" : "VEC3", "max" : [-0.162200003862381, 0.719500005245209, 2.43869996070862], "min" : [-2.36089992523193, -0.846700012683868, -1.61129999160767]}, {"bufferView" : 25, "byteOffset" : 12, "componentType" : 5126, "count" : 46, "type" : "VEC3", "max" : [0.986245036125183, 0.952751517295837, 0.999984562397003], "min" : [-0.980601608753204, -0.958556234836578, -0.994185566902161]}, {"bufferView" : 25, "byteOffset" : 24, "componentType" : 5126, "count" : 46, "type" : "VEC2", "max" : [0.0967999994754791, 0.162000000476837], "min" : [0.0129000004380941, 0.0184000134468079]}, {"bufferView" : 0, "byteOffset" : 8264, "componentType" : 5123, "count" : 210, "type" : "SCALAR", "max" : [46], "min" : [0]}, {"bufferView" : 29, "byteOffset" : 0, "componentType" : 5126, "count" : 47, "type" : "VEC3", "max" : [2.32850003242493, 11.2054672241211, 2.70195198059082], "min" : [-2.32850003242493, 6.29406785964966, -2.92064905166626]}, {"bufferView" : 29, "byteOffset" : 12, "componentType" : 5126, "count" : 47, "type" : "VEC3", "max" : [0.913111746311188, 0.999536991119385, 0.959152281284332], "min" : [-0.913111746311188, -0.944159328937531, -0.986289143562317]}, {"bufferView" : 29, "byteOffset" : 24, "componentType" : 5126, "count" : 47, "type" : "VEC2", "max" : [0.986599981784821, 0.655699968338013], "min" : [0.614199995994568, 0.0443000197410584]}, {"bufferView" : 0, "byteOffset" : 8684, "componentType" : 5123, "count" : 150, "type" : "SCALAR", "max" : [30], "min" : [0]}, {"bufferView" : 33, "byteOffset" : 0, "componentType" : 5126, "count" : 31, "type" : "VEC3", "max" : [0.924799978733063, 11.9949064254761, 0.696949005126953], "min" : [-0.924799978733063, 10.5808057785034, -1.1995530128479]}, {"bufferView" : 33, "byteOffset" : 12, "componentType" : 5126, "count" : 31, "type" : "VEC3", "max" : [0.925297677516937, 0.970302641391754, 0.883189678192139], "min" : [-0.952573478221893, -0.0110400496050715, -0.999943435192108]}, {"bufferView" : 33, "byteOffset" : 24, "componentType" : 5126, "count" : 31, "type" : "VEC2", "max" : [0.986699998378754, 0.986699998378754], "min" : [0.982200026512146, 0.981599986553192]}, {"bufferView" : 0, "byteOffset" : 8984, "componentType" : 5123, "count" : 234, "type" : "SCALAR", "max" : [95], "min" : [0]}, {"bufferView" : 37, "byteOffset" : 0, "componentType" : 5126, "count" : 96, "type" : "VEC3", "max" : [3.25679993629456, 1.43480002880096, 3.33489990234375], "min" : [-2.97650003433228, -0.276100009679794, -3.17129993438721]}, {"bufferView" : 37, "byteOffset" : 12, "componentType" : 5126, "count" : 96, "type" : "VEC3", "max" : [0.923379063606262, 1.00000429153442, 0.969604134559631], "min" : [-0.65874445438385, -1.00000429153442, -0.910789549350739]}, {"bufferView" : 37, "byteOffset" : 24, "componentType" : 5126, "count" : 96, "type" : "VEC2", "max" : [0.986599981784821, 0.983399987220764], "min" : [0.0111999996006489, 0.00910001993179321]}], "asset" : {"generator" : "Aspose.3D 20.1", "version" : "2.0"}, "buffers" : [{"uri" : "buffer.bin", "byteLength" : 100240}], "bufferViews" : [{"buffer" : 0, "byteOffset" : 0, "byteLength" : 9452, "target" : 34963}, {"buffer" : 0, "byteOffset" : 9456, "byteLength" : 12416, "byteStride" : 32, "target" : 34962}, {"buffer" : 0, "byteOffset" : 21876, "byteLength" : 5510}, {"buffer" : 0, "byteOffset" : 27388, "byteLength" : 5507}, {"buffer" : 0, "byteOffset" : 32896, "byteLength" : 268}, {"buffer" : 0, "byteOffset" : 33168, "byteLength" : 736, "byteStride" : 32, "target" : 34962}, {"buffer" : 0, "byteOffset" : 33908, "byteLength" : 5510}, {"buffer" : 0, "byteOffset" : 39420, "byteLength" : 5507}, {"buffer" : 0, "byteOffset" : 44928, "byteLength" : 268}, {"buffer" : 0, "byteOffset" : 45200, "byteLength" : 1056, "byteStride" : 32, "target" : 34962}, {"buffer" : 0, "byteOffset" : 46260, "byteLength" : 480}, {"buffer" : 0, "byteOffset" : 46744, "byteLength" : 482}, {"buffer" : 0, "byteOffset" : 47228, "byteLength" : 268}, {"buffer" : 0, "byteOffset" : 47500, "byteLength" : 1056, "byteStride" : 32, "target" : 34962}, {"buffer" : 0, "byteOffset" : 48560, "byteLength" : 480}, {"buffer" : 0, "byteOffset" : 49044, "byteLength" : 482}, {"buffer" : 0, "byteOffset" : 49528, "byteLength" : 268}, {"buffer" : 0, "byteOffset" : 49800, "byteLength" : 9824, "byteStride" : 32, "target" : 34962}, {"buffer" : 0, "byteOffset" : 59628, "byteLength" : 3145}, {"buffer" : 0, "byteOffset" : 62776, "byteLength" : 3161}, {"buffer" : 0, "byteOffset" : 65940, "byteLength" : 218}, {"buffer" : 0, "byteOffset" : 66160, "byteLength" : 5024, "byteStride" : 32, "target" : 34962}, {"buffer" : 0, "byteOffset" : 71188, "byteLength" : 3145}, {"buffer" : 0, "byteOffset" : 74336, "byteLength" : 3161}, {"buffer" : 0, "byteOffset" : 77500, "byteLength" : 218}, {"buffer" : 0, "byteOffset" : 77720, "byteLength" : 1472, "byteStride" : 32, "target" : 34962}, {"buffer" : 0, "byteOffset" : 79196, "byteLength" : 3145}, {"buffer" : 0, "byteOffset" : 82344, "byteLength" : 3161}, {"buffer" : 0, "byteOffset" : 85508, "byteLength" : 218}, {"buffer" : 0, "byteOffset" : 85728, "byteLength" : 1504, "byteStride" : 32, "target" : 34962}, {"buffer" : 0, "byteOffset" : 87236, "byteLength" : 3145}, {"buffer" : 0, "byteOffset" : 90384, "byteLength" : 3161}, {"buffer" : 0, "byteOffset" : 93548, "byteLength" : 218}, {"buffer" : 0, "byteOffset" : 93768, "byteLength" : 992, "byteStride" : 32, "target" : 34962}, {"buffer" : 0, "byteOffset" : 94764, "byteLength" : 193}, {"buffer" : 0, "byteOffset" : 94960, "byteLength" : 193}, {"buffer" : 0, "byteOffset" : 95156, "byteLength" : 189}, {"buffer" : 0, "byteOffset" : 95348, "byteLength" : 3072, "byteStride" : 32, "target" : 34962}, {"buffer" : 0, "byteOffset" : 98424, "byteLength" : 807}, {"buffer" : 0, "byteOffset" : 99232, "byteLength" : 812}, {"buffer" : 0, "byteOffset" : 100048, "byteLength" : 189}], "images" : [{"mimeType" : "image/png", "bufferView" : 2}, {"mimeType" : "image/png", "bufferView" : 3}, {"mimeType" : "image/png", "bufferView" : 4}, {"mimeType" : "image/png", "bufferView" : 6}, {"mimeType" : "image/png", "bufferView" : 7}, {"mimeType" : "image/png", "bufferView" : 8}, {"mimeType" : "image/png", "bufferView" : 10}, {"mimeType" : "image/png", "bufferView" : 11}, {"mimeType" : "image/png", "bufferView" : 12}, {"mimeType" : "image/png", "bufferView" : 14}, {"mimeType" : "image/png", "bufferView" : 15}, {"mimeType" : "image/png", "bufferView" : 16}, {"mimeType" : "image/png", "bufferView" : 18}, {"mimeType" : "image/png", "bufferView" : 19}, {"mimeType" : "image/png", "bufferView" : 20}, {"mimeType" : "image/png", "bufferView" : 22}, {"mimeType" : "image/png", "bufferView" : 23}, {"mimeType" : "image/png", "bufferView" : 24}, {"mimeType" : "image/png", "bufferView" : 26}, {"mimeType" : "image/png", "bufferView" : 27}, {"mimeType" : "image/png", "bufferView" : 28}, {"mimeType" : "image/png", "bufferView" : 30}, {"mimeType" : "image/png", "bufferView" : 31}, {"mimeType" : "image/png", "bufferView" : 32}, {"mimeType" : "image/png", "bufferView" : 34}, {"mimeType" : "image/png", "bufferView" : 35}, {"mimeType" : "image/png", "bufferView" : 36}, {"mimeType" : "image/png", "bufferView" : 38}, {"mimeType" : "image/png", "bufferView" : 39}, {"mimeType" : "image/png", "bufferView" : 40}], "materials" : [{"extensions" : {"KHR_materials_pbrSpecularGlossiness" : {"diffuseFactor" : [1, 1, 1, 1], "diffuseTexture" : {"index" : 0, "texCoord" : 0}, "specularFactor" : [0, 0, 0], "glossinessFactor" : 0}}, "pbrMetallicRoughness" : {"baseColorFactor" : [1, 1, 1, 1], "baseColorTexture" : {"index" : 1, "texCoord" : 0}, "metallicFactor" : 1, "roughnessFactor" : 1, "metallicRoughnessTexture" : {"index" : 2, "texCoord" : 0}}, "emissiveFactor" : [0, 0, 0], "alphaMode" : "OPAQUE", "doubleSided" : true}, {"extensions" : {"KHR_materials_pbrSpecularGlossiness" : {"diffuseFactor" : [1, 1, 1, 1], "diffuseTexture" : {"index" : 3, "texCoord" : 0}, "specularFactor" : [0, 0, 0], "glossinessFactor" : 0}}, "pbrMetallicRoughness" : {"baseColorFactor" : [1, 1, 1, 1], "baseColorTexture" : {"index" : 4, "texCoord" : 0}, "metallicFactor" : 1, "roughnessFactor" : 1, "metallicRoughnessTexture" : {"index" : 5, "texCoord" : 0}}, "emissiveFactor" : [0, 0, 0], "alphaMode" : "OPAQUE", "doubleSided" : true}, {"extensions" : {"KHR_materials_pbrSpecularGlossiness" : {"diffuseFactor" : [1, 1, 1, 1], "diffuseTexture" : {"index" : 6, "texCoord" : 0}, "specularFactor" : [0, 0, 0], "glossinessFactor" : 0}}, "pbrMetallicRoughness" : {"baseColorFactor" : [1, 1, 1, 1], "baseColorTexture" : {"index" : 7, "texCoord" : 0}, "metallicFactor" : 1, "roughnessFactor" : 1, "metallicRoughnessTexture" : {"index" : 8, "texCoord" : 0}}, "emissiveFactor" : [0, 0, 0], "alphaMode" : "OPAQUE", "doubleSided" : true}, {"extensions" : {"KHR_materials_pbrSpecularGlossiness" : {"diffuseFactor" : [1, 1, 1, 1], "diffuseTexture" : {"index" : 9, "texCoord" : 0}, "specularFactor" : [0, 0, 0], "glossinessFactor" : 0}}, "pbrMetallicRoughness" : {"baseColorFactor" : [1, 1, 1, 1], "baseColorTexture" : {"index" : 10, "texCoord" : 0}, "metallicFactor" : 1, "roughnessFactor" : 1, "metallicRoughnessTexture" : {"index" : 11, "texCoord" : 0}}, "emissiveFactor" : [0, 0, 0], "alphaMode" : "OPAQUE", "doubleSided" : true}, {"extensions" : {"KHR_materials_pbrSpecularGlossiness" : {"diffuseFactor" : [1, 1, 1, 1], "diffuseTexture" : {"index" : 12, "texCoord" : 0}, "specularFactor" : [0, 0, 0], "glossinessFactor" : 0}}, "pbrMetallicRoughness" : {"baseColorFactor" : [1, 1, 1, 1], "baseColorTexture" : {"index" : 13, "texCoord" : 0}, "metallicFactor" : 1, "roughnessFactor" : 1, "metallicRoughnessTexture" : {"index" : 14, "texCoord" : 0}}, "emissiveFactor" : [0, 0, 0], "alphaMode" : "OPAQUE", "doubleSided" : true}, {"extensions" : {"KHR_materials_pbrSpecularGlossiness" : {"diffuseFactor" : [1, 1, 1, 1], "diffuseTexture" : {"index" : 15, "texCoord" : 0}, "specularFactor" : [0, 0, 0], "glossinessFactor" : 0}}, "pbrMetallicRoughness" : {"baseColorFactor" : [1, 1, 1, 1], "baseColorTexture" : {"index" : 16, "texCoord" : 0}, "metallicFactor" : 1, "roughnessFactor" : 1, "metallicRoughnessTexture" : {"index" : 17, "texCoord" : 0}}, "emissiveFactor" : [0, 0, 0], "alphaMode" : "OPAQUE", "doubleSided" : true}, {"extensions" : {"KHR_materials_pbrSpecularGlossiness" : {"diffuseFactor" : [1, 1, 1, 1], "diffuseTexture" : {"index" : 18, "texCoord" : 0}, "specularFactor" : [0, 0, 0], "glossinessFactor" : 0}}, "pbrMetallicRoughness" : {"baseColorFactor" : [1, 1, 1, 1], "baseColorTexture" : {"index" : 19, "texCoord" : 0}, "metallicFactor" : 1, "roughnessFactor" : 1, "metallicRoughnessTexture" : {"index" : 20, "texCoord" : 0}}, "emissiveFactor" : [0, 0, 0], "alphaMode" : "OPAQUE", "doubleSided" : true}, {"extensions" : {"KHR_materials_pbrSpecularGlossiness" : {"diffuseFactor" : [1, 1, 1, 1], "diffuseTexture" : {"index" : 21, "texCoord" : 0}, "specularFactor" : [0, 0, 0], "glossinessFactor" : 0}}, "pbrMetallicRoughness" : {"baseColorFactor" : [1, 1, 1, 1], "baseColorTexture" : {"index" : 22, "texCoord" : 0}, "metallicFactor" : 1, "roughnessFactor" : 1, "metallicRoughnessTexture" : {"index" : 23, "texCoord" : 0}}, "emissiveFactor" : [0, 0, 0], "alphaMode" : "OPAQUE", "doubleSided" : true}, {"extensions" : {"KHR_materials_pbrSpecularGlossiness" : {"diffuseFactor" : [1, 1, 1, 1], "diffuseTexture" : {"index" : 24, "texCoord" : 0}, "specularFactor" : [0, 0, 0], "glossinessFactor" : 0}}, "pbrMetallicRoughness" : {"baseColorFactor" : [1, 1, 1, 1], "baseColorTexture" : {"index" : 25, "texCoord" : 0}, "metallicFactor" : 1, "roughnessFactor" : 1, "metallicRoughnessTexture" : {"index" : 26, "texCoord" : 0}}, "emissiveFactor" : [0, 0, 0], "alphaMode" : "OPAQUE", "doubleSided" : true}, {"extensions" : {"KHR_materials_pbrSpecularGlossiness" : {"diffuseFactor" : [1, 1, 1, 1], "diffuseTexture" : {"index" : 27, "texCoord" : 0}, "specularFactor" : [0, 0, 0], "glossinessFactor" : 0}}, "pbrMetallicRoughness" : {"baseColorFactor" : [1, 1, 1, 1], "baseColorTexture" : {"index" : 28, "texCoord" : 0}, "metallicFactor" : 1, "roughnessFactor" : 1, "metallicRoughnessTexture" : {"index" : 29, "texCoord" : 0}}, "emissiveFactor" : [0, 0, 0], "alphaMode" : "OPAQUE", "doubleSided" : true}], "meshes" : [{"primitives" : [{"attributes" : {"POSITION" : 1, "NORMAL" : 2, "TEXCOORD_0" : 3}, "indices" : 0, "material" : 0, "mode" : 4}]}, {"primitives" : [{"attributes" : {"POSITION" : 5, "NORMAL" : 6, "TEXCOORD_0" : 7}, "indices" : 4, "material" : 1, "mode" : 4}]}, {"primitives" : [{"attributes" : {"POSITION" : 9, "NORMAL" : 10, "TEXCOORD_0" : 11}, "indices" : 8, "material" : 2, "mode" : 4}]}, {"primitives" : [{"attributes" : {"POSITION" : 13, "NORMAL" : 14, "TEXCOORD_0" : 15}, "indices" : 12, "material" : 3, "mode" : 4}]}, {"primitives" : [{"attributes" : {"POSITION" : 17, "NORMAL" : 18, "TEXCOORD_0" : 19}, "indices" : 16, "material" : 4, "mode" : 4}]}, {"primitives" : [{"attributes" : {"POSITION" : 21, "NORMAL" : 22, "TEXCOORD_0" : 23}, "indices" : 20, "material" : 5, "mode" : 4}]}, {"primitives" : [{"attributes" : {"POSITION" : 25, "NORMAL" : 26, "TEXCOORD_0" : 27}, "indices" : 24, "material" : 6, "mode" : 4}]}, {"primitives" : [{"attributes" : {"POSITION" : 29, "NORMAL" : 30, "TEXCOORD_0" : 31}, "indices" : 28, "material" : 7, "mode" : 4}]}, {"primitives" : [{"attributes" : {"POSITION" : 33, "NORMAL" : 34, "TEXCOORD_0" : 35}, "indices" : 32, "material" : 8, "mode" : 4}]}, {"primitives" : [{"attributes" : {"POSITION" : 37, "NORMAL" : 38, "TEXCOORD_0" : 39}, "indices" : 36, "material" : 9, "mode" : 4}]}], "nodes" : [{"matrix" : [34.2461013793945, 0, 0, 0, 0, 34.2461013793945, 0, 0, 0, 0, 34.2461013793945, 0, -3.375846426934E-05, -154.779022216797, 253.197692871094, 1], "mesh" : 0}, {"matrix" : [34.2461013793945, 0, 0, 0, 0, 34.2461013793945, 0, 0, 0, 0, 34.2461013793945, 0, -3.375846426934E-05, -154.779022216797, 253.197692871094, 1], "mesh" : 1}, {"matrix" : [34.2461013793945, 0, 0, 0, 0, 34.2461013793945, 0, 0, 0, 0, 34.2461013793945, 0, -3.375846426934E-05, -154.779022216797, 253.197692871094, 1], "mesh" : 2}, {"matrix" : [34.2461013793945, 0, 0, 0, 0, 34.2461013793945, 0, 0, 0, 0, 34.2461013793945, 0, -3.375846426934E-05, -154.779022216797, 253.197692871094, 1], "mesh" : 3}, {"matrix" : [34.2461013793945, 0, 0, 0, 0, 34.2461013793945, 0, 0, 0, 0, 34.2461013793945, 0, -3.375846426934E-05, -154.779022216797, 253.197692871094, 1], "mesh" : 4}, {"matrix" : [34.2461013793945, 0, 0, 0, 0, 34.2461013793945, 0, 0, 0, 0, 34.2461013793945, 0, -3.375846426934E-05, -154.779022216797, 253.197692871094, 1], "mesh" : 5}, {"matrix" : [34.2461013793945, 0, 0, 0, 0, 34.2461013793945, 0, 0, 0, 0, 34.2461013793945, 0, -3.375846426934E-05, -154.779022216797, 253.197692871094, 1], "mesh" : 6}, {"matrix" : [34.2461013793945, 0, 0, 0, 0, 34.2461013793945, 0, 0, 0, 0, 34.2461013793945, 0, -3.375846426934E-05, -154.779022216797, 253.197692871094, 1], "mesh" : 7}, {"matrix" : [34.2461013793945, 0, 0, 0, 0, 34.2461013793945, 0, 0, 0, 0, 34.2461013793945, 0, -3.375846426934E-05, -154.779022216797, 253.197692871094, 1], "mesh" : 8}, {"matrix" : [34.2461013793945, 0, 0, 0, 0, 34.2461013793945, 0, 0, 0, 0, 34.2461013793945, 0, -3.375846426934E-05, -154.779022216797, 253.197692871094, 1], "mesh" : 9}, {"children" : [0, 1, 2, 3, 4, 5, 6, 7, 8, 9], "matrix" : [0.00100000004749745, 0, 0, 0, 0, 0.00100000004749745, 0, 0, 0, 0, 0.00100000004749745, 0, 0, 0, 0, 1], "name" : "node_id14"}, {"children" : [10], "name" : "root"}], "samplers" : [{"magFilter" : 9728, "minFilter" : 9985, "wrapS" : 10497, "wrapT" : 10497}, {"magFilter" : 9728, "minFilter" : 9985, "wrapS" : 10497, "wrapT" : 10497}, {"magFilter" : 9728, "minFilter" : 9985, "wrapS" : 10497, "wrapT" : 10497}, {"magFilter" : 9728, "minFilter" : 9985, "wrapS" : 10497, "wrapT" : 10497}, {"magFilter" : 9728, "minFilter" : 9985, "wrapS" : 10497, "wrapT" : 10497}, {"magFilter" : 9728, "minFilter" : 9985, "wrapS" : 10497, "wrapT" : 10497}, {"magFilter" : 9728, "minFilter" : 9985, "wrapS" : 10497, "wrapT" : 10497}, {"magFilter" : 9728, "minFilter" : 9985, "wrapS" : 10497, "wrapT" : 10497}, {"magFilter" : 9728, "minFilter" : 9985, "wrapS" : 10497, "wrapT" : 10497}, {"magFilter" : 9728, "minFilter" : 9985, "wrapS" : 10497, "wrapT" : 10497}, {"magFilter" : 9728, "minFilter" : 9985, "wrapS" : 10497, "wrapT" : 10497}, {"magFilter" : 9728, "minFilter" : 9985, "wrapS" : 10497, "wrapT" : 10497}, {"magFilter" : 9728, "minFilter" : 9985, "wrapS" : 10497, "wrapT" : 10497}, {"magFilter" : 9728, "minFilter" : 9985, "wrapS" : 10497, "wrapT" : 10497}, {"magFilter" : 9728, "minFilter" : 9985, "wrapS" : 10497, "wrapT" : 10497}, {"magFilter" : 9728, "minFilter" : 9985, "wrapS" : 10497, "wrapT" : 10497}, {"magFilter" : 9728, "minFilter" : 9985, "wrapS" : 10497, "wrapT" : 10497}, {"magFilter" : 9728, "minFilter" : 9985, "wrapS" : 10497, "wrapT" : 10497}, {"magFilter" : 9728, "minFilter" : 9985, "wrapS" : 10497, "wrapT" : 10497}, {"magFilter" : 9728, "minFilter" : 9985, "wrapS" : 10497, "wrapT" : 10497}, {"magFilter" : 9728, "minFilter" : 9985, "wrapS" : 10497, "wrapT" : 10497}, {"magFilter" : 9728, "minFilter" : 9985, "wrapS" : 10497, "wrapT" : 10497}, {"magFilter" : 9728, "minFilter" : 9985, "wrapS" : 10497, "wrapT" : 10497}, {"magFilter" : 9728, "minFilter" : 9985, "wrapS" : 10497, "wrapT" : 10497}, {"magFilter" : 9728, "minFilter" : 9985, "wrapS" : 10497, "wrapT" : 10497}, {"magFilter" : 9728, "minFilter" : 9985, "wrapS" : 10497, "wrapT" : 10497}, {"magFilter" : 9728, "minFilter" : 9985, "wrapS" : 10497, "wrapT" : 10497}, {"magFilter" : 9728, "minFilter" : 9985, "wrapS" : 10497, "wrapT" : 10497}, {"magFilter" : 9728, "minFilter" : 9985, "wrapS" : 10497, "wrapT" : 10497}, {"magFilter" : 9728, "minFilter" : 9985, "wrapS" : 10497, "wrapT" : 10497}], "scene" : 0, "scenes" : [{"nodes" : [11]}], "textures" : [{"sampler" : 0, "source" : 0}, {"sampler" : 1, "source" : 1}, {"sampler" : 2, "source" : 2}, {"sampler" : 3, "source" : 3}, {"sampler" : 4, "source" : 4}, {"sampler" : 5, "source" : 5}, {"sampler" : 6, "source" : 6}, {"sampler" : 7, "source" : 7}, {"sampler" : 8, "source" : 8}, {"sampler" : 9, "source" : 9}, {"sampler" : 10, "source" : 10}, {"sampler" : 11, "source" : 11}, {"sampler" : 12, "source" : 12}, {"sampler" : 13, "source" : 13}, {"sampler" : 14, "source" : 14}, {"sampler" : 15, "source" : 15}, {"sampler" : 16, "source" : 16}, {"sampler" : 17, "source" : 17}, {"sampler" : 18, "source" : 18}, {"sampler" : 19, "source" : 19}, {"sampler" : 20, "source" : 20}, {"sampler" : 21, "source" : 21}, {"sampler" : 22, "source" : 22}, {"sampler" : 23, "source" : 23}, {"sampler" : 24, "source" : 24}, {"sampler" : 25, "source" : 25}, {"sampler" : 26, "source" : 26}, {"sampler" : 27, "source" : 27}, {"sampler" : 28, "source" : 28}, {"sampler" : 29, "source" : 29}]}