{"accessors" : [{"bufferView" : 0, "byteOffset" : 0, "componentType" : 5123, "count" : 193536, "type" : "SCALAR", "max" : [35021], "min" : [0]}, {"bufferView" : 1, "byteOffset" : 0, "componentType" : 5126, "count" : 35022, "type" : "VEC3", "max" : [3.49060010910034, 3.49060010910034, 4.20190000534058], "min" : [-3.49070000648499, -3.49070000648499, 2.97510004043579]}, {"bufferView" : 1, "byteOffset" : 12, "componentType" : 5126, "count" : 35022, "type" : "VEC3", "max" : [1, 1, 1], "min" : [-1, -1, -1]}, {"bufferView" : 1, "byteOffset" : 24, "componentType" : 5126, "count" : 35022, "type" : "VEC2", "max" : [1, 1], "min" : [0, 0]}, {"bufferView" : 0, "byteOffset" : 387072, "componentType" : 5123, "count" : 29760, "type" : "SCALAR", "max" : [5176], "min" : [0]}, {"bufferView" : 2, "byteOffset" : 0, "componentType" : 5126, "count" : 5177, "type" : "VEC3", "max" : [3.42269992828369, 3.42269992828369, 7.07429981231689], "min" : [-3.42280006408691, -3.42269992828369, 0.118199996650219]}, {"bufferView" : 2, "byteOffset" : 12, "componentType" : 5126, "count" : 5177, "type" : "VEC3", "max" : [1, 1, 1], "min" : [-1, -1, -1]}, {"bufferView" : 2, "byteOffset" : 24, "componentType" : 5126, "count" : 5177, "type" : "VEC2", "max" : [1, 1], "min" : [0, 0]}], "asset" : {"generator" : "Aspose.3D 19.11", "version" : "2.0"}, "buffers" : [{"uri" : "buffer.bin", "byteLength" : 1732972}], "bufferViews" : [{"buffer" : 0, "byteOffset" : 0, "byteLength" : 446592, "target" : 34963}, {"buffer" : 0, "byteOffset" : 446596, "byteLength" : 1120704, "byteStride" : 32, "target" : 34962}, {"buffer" : 0, "byteOffset" : 1567304, "byteLength" : 165664, "byteStride" : 32, "target" : 34962}], "materials" : [{"pbrMetallicRoughness" : {"baseColorFactor" : [1, 1, 1, 1], "metallicFactor" : 0.5, "roughnessFactor" : 0.5}, "emissiveFactor" : [0, 0, 0], "alphaMode" : "OPAQUE", "doubleSided" : false}, {"pbrMetallicRoughness" : {"baseColorFactor" : [1, 1, 1, 1], "metallicFactor" : 0.5, "roughnessFactor" : 0.5}, "emissiveFactor" : [0, 0, 0], "alphaMode" : "OPAQUE", "doubleSided" : false}], "meshes" : [{"primitives" : [{"attributes" : {"POSITION" : 1, "NORMAL" : 2, "TEXCOORD_0" : 3}, "indices" : 0, "material" : 0, "mode" : 4}]}, {"primitives" : [{"attributes" : {"POSITION" : 5, "NORMAL" : 6, "TEXCOORD_0" : 7}, "indices" : 4, "material" : 1, "mode" : 4}]}], "nodes" : [{"mesh" : 0, "name" : "ball_thread"}, {"mesh" : 1, "name" : "ball_body"}, {"children" : [0, 1]}], "scene" : 0, "scenes" : [{"nodes" : [2]}]}