{"accessors" : [{"bufferView" : 0, "byteOffset" : 0, "componentType" : 5123, "count" : 13950, "type" : "SCALAR", "max" : [3203], "min" : [0]}, {"bufferView" : 1, "byteOffset" : 0, "componentType" : 5126, "count" : 3204, "type" : "VEC3", "max" : [46.3043594360352, 78.5368804931641, 58.5672340393066], "min" : [-74.0369262695313, -158.721908569336, -62.3484344482422]}, {"bufferView" : 1, "byteOffset" : 12, "componentType" : 5126, "count" : 3204, "type" : "VEC3", "max" : [0.999474108219147, 0.997404515743256, 0.99987667798996], "min" : [-0.999476194381714, -0.999251902103424, -0.99988728761673]}, {"bufferView" : 1, "byteOffset" : 24, "componentType" : 5126, "count" : 3204, "type" : "VEC2", "max" : [0.994235992431641, 0.993607997894287], "min" : [0.00123499997425824, 0.00203200010582805]}, {"bufferView" : 1, "byteOffset" : 32, "componentType" : 5126, "count" : 3204, "type" : "VEC2", "max" : [0.994235992431641, 0.993607997894287], "min" : [0.00123499997425824, 0.00203200010582805]}], "asset" : {"generator" : "Aspose.3D 19.11", "version" : "2.0"}, "buffers" : [{"uri" : "buffer.bin", "byteLength" : 1571272}], "bufferViews" : [{"buffer" : 0, "byteOffset" : 0, "byteLength" : 27900, "target" : 34963}, {"buffer" : 0, "byteOffset" : 27904, "byteLength" : 128160, "byteStride" : 40, "target" : 34962}, {"buffer" : 0, "byteOffset" : 156068, "byteLength" : 1415200}], "images" : [{"mimeType" : "image/png", "bufferView" : 2}], "materials" : [{"pbrMetallicRoughness" : {"baseColorFactor" : [1, 1, 1, 1], "baseColorTexture" : {"index" : 0, "texCoord" : 0}, "metallicFactor" : 0.5, "roughnessFactor" : 0.5}, "emissiveFactor" : [0, 0, 0], "alphaMode" : "OPAQUE", "doubleSided" : false}], "meshes" : [{"primitives" : [{"attributes" : {"POSITION" : 1, "NORMAL" : 2, "TEXCOORD_0" : 3, "TEXCOORD_1" : 4}, "indices" : 0, "material" : 0, "mode" : 4}]}], "nodes" : [{"mesh" : 0, "name" : "tiger"}, {"children" : [0]}], "samplers" : [{"magFilter" : 9729, "minFilter" : 9987, "wrapS" : 10497, "wrapT" : 10497}], "scene" : 0, "scenes" : [{"nodes" : [1]}], "textures" : [{"sampler" : 0, "source" : 0}]}